<svg id="Layer_1" viewBox="0 0 24 24" xmlns="http://www.w3.org/2000/svg" data-name="Layer 1"><path d="m3.926 10h-1.911c.114-4.088.88-7.202.915-7.343.083-.332.33-.598.654-.706.117-.039 2.917-.951 8.417-.951s8.3.913 8.416.951c.324.108.57.375.653.706.036.14.802 3.255.916 7.343h-1.911c-1.423 0-2.659 1.006-2.938 2.392-.111.542-.229 1.778-.325 2.777-3.106-.225-6.515-.225-9.621 0-.097-.991-.214-2.235-.325-2.777-.28-1.386-1.516-2.392-2.938-2.392zm18.06 2h-1.911c-.475 0-.886.332-.978.788-.135.689-.288 2.611-.396 3.567-.06.54-.527.929-1.083.886-3.584-.32-7.649-.32-11.234 0-.533.05-1.024-.343-1.083-.885-.108-.952-.263-2.877-.396-3.568-.092-.456-.503-.788-.978-.788h-1.911c-.558 0-1.016.457-1 1.015.123 4.328.992 7.157 1.031 7.284.096.307.333.549.638.65.047.016.489.159 1.316.334v.218c0 .829.671 1.5 1.5 1.5.745 0 1.359-.545 1.476-1.257 1.355.147 3.025.257 5.024.257s3.67-.109 5.025-.257c.117.712.731 1.257 1.475 1.257.828 0 1.5-.671 1.5-1.5v-.218c.828-.175 1.27-.318 1.316-.334.305-.102.542-.344.638-.65.04-.127.909-2.956 1.031-7.284.016-.558-.442-1.015-1-1.015z"/></svg>